<?xml version="1.0" encoding="UTF-8"?>
<!DOCTYPE svg PUBLIC "-//W3C//DTD SVG 1.1//EN" "http://www.w3.org/Graphics/SVG/1.1/DTD/svg11.dtd">
<!-- Creator: CorelDRAW -->
<svg xmlns="http://www.w3.org/2000/svg" xml:space="preserve" width="160px" height="160px" shape-rendering="geometricPrecision" text-rendering="geometricPrecision" image-rendering="optimizeQuality" fill-rule="evenodd" clip-rule="evenodd"
viewBox="0 0 160 160"
 xmlns:xlink="http://www.w3.org/1999/xlink">
 <g id="Layer_x0020_1">
  <metadata id="CorelCorpID_0Corel-Layer"/>
  <path fill="#ff5555" fill-opacity="0.301961" d="M80 0c44.1826,0 80,35.8174 80,80 0,44.1826 -35.8174,80 -80,80 -44.1826,0 -80,-35.8174 -80,-80 0,-44.1826 35.8174,-80 80,-80z"/>
  <path fill="#ff2222" fill-rule="nonzero" fill-opacity="0.8" stroke="#ff5555" stroke-width="4.15903" stroke-opacity="0.501961" d="M79.1123 60.3012c6.12655,-12.2543 12.2543,-18.3808 24.5086,-18.3808 13.5286,0 24.5086,10.9799 24.5086,24.5086 0,24.5086 -24.5086,49.0171 -49.0171,73.5257 -24.5086,-24.5086 -49.0171,-49.0171 -49.0171,-73.5257 0,-13.5286 10.9799,-24.5086 24.5086,-24.5086 12.2543,0 18.3808,6.12655 24.5086,18.3808z"/>
 </g>
</svg>
